<svg width="400" height="400" viewBox="0 0 400 400" fill="none"
    xmlns="http://www.w3.org/2000/svg">
    <rect width="400" height="400" rx="100" fill="#BBBBBB"/>
    <path d="M129.5 363.6C120.1 367.4 119.2 365.5 117.2 355.4C116.2 350.4 117 345 117.1 339.8C117.3 311.9 117.5 283.9 117.6 256C117.6 254 116.4 251.7 115.1 250.1C93.2 224 79.9 194.7 82.1 159.9C83.2 141.9 88.1 124.8 97.1 109C99.3 105.1 102.9 102.1 105.7 98.5C115.2 86.7 119.7 73.7 117.5 58.2C116.7 52.5 118.1 46.4 119.4 40.6C119.8 38.8 122.8 36.3 124.6 36.2C128.2 36.1 130.3 39 130.8 42.6C131.3 46.9 132 51.3 131.7 55.6C130.9 65.1 130.2 74.7 128.3 84C126.5 92.8 121.9 100.5 116 107.5C100 126.7 93.8 148.7 96.6 173.6C98.7 192.8 104.4 210.6 114.4 227C114.8 227.7 115.3 228.3 116.5 230C116.8 227.2 117 225.5 117.1 223.9C117.5 203.8 117.8 183.7 118.3 163.5C118.5 152.3 119.1 141.1 119.2 129.9C119.2 126 121.5 124.8 124.5 124C127.6 123.2 129.5 125 130.2 127.9C131 131.8 132.1 135.8 132.1 139.8C132 179.7 131.6 219.7 131.5 259.6C131.5 264.3 132.4 269.1 133 274.8C140.4 269.4 142.9 263 143.4 255.7C143.9 248.4 144.5 241.1 144.6 233.9C145 201.8 145.2 169.6 145.5 137.5C145.6 129.6 148 125.9 155.2 123.4C156.3 128.4 158.2 133.3 158.3 138.3C158.8 153.2 158.5 168.2 158.7 183.1C158.8 196.9 159.1 210.7 159.3 224.5C159.3 225.1 159.4 225.6 159.5 226.2C160 226.4 160.4 226.5 160.9 226.7C164.6 219.5 168.8 212.4 172 205C178.5 190.2 182.8 174.9 182.8 158.5C182.8 143.2 177.3 129.7 170.7 116.5C166.7 108.5 162.8 100.5 159.1 92.4C157.6 89.1 155.8 85.4 155.9 81.9C156.2 70.6 157.4 59.4 158.3 48.1C158.4 47 159 45.9 159.6 45C161.5 41.9 163.9 38.2 167.7 39.5C169.5 40.1 171 44.5 171 47.2C171.1 57.1 170.5 67 170.3 76.8C170.1 84.2 171.5 91.2 175.1 97.8C179.5 105.7 183.5 113.9 187.5 122C198.1 143.8 199.8 166.4 191.3 188.9C184.3 207.2 175.2 224.6 166.9 242.4C165.8 244.7 163.8 246.6 162.7 248.9C161 252.3 159.3 255.8 158.4 259.5C157 265.5 154.8 270.8 150.3 275.2C144.8 280.5 139.4 285.9 134.2 291.5C132.7 293.1 131.7 295.7 131.6 297.8C131.2 311.6 131.3 325.4 131 339.2C130.4 347.4 129.9 355.5 129.5 363.6Z" fill="#010102"/>
    <path d="M246.6 164.7C238.4 164.7 230.9 164.9 223.5 164.6C219.9 164.4 216.1 163.9 212.8 162.4C211.1 161.6 210.1 158.6 209.7 156.4C209.6 155.5 211.9 153.6 213.4 153.2C217.7 152 222.1 150.6 226.5 150.5C242.2 149.9 258 149.2 273.7 149.6C282.4 149.8 291 151.8 299.6 153.1C306.2 154.1 309.9 158.4 311.7 164.4C315 174.8 314.8 185.6 310.2 195.2C308.1 199.6 302.4 202.6 297.7 205.2C287.8 210.7 276.5 210.5 265.6 212C254.1 213.5 242.4 214.6 231.1 217.2C221.1 219.5 217.5 225.6 218.6 235.6C218.8 237.8 220.5 240.5 222.4 241.6C231.2 247 241.1 248.4 251.3 248.9C259.5 249.3 267.8 250.2 276 250.9C291.7 252.1 300.8 261.7 305 275.7C308.8 288.4 311.1 301.5 313.7 314.5C316.2 326.9 318.1 339.3 320.4 351.8C321.7 359.1 319.6 362.5 311.5 364.1C309.1 356.3 306 348.5 304.2 340.4C300.9 325.6 298.5 310.5 295.3 295.6C293.6 287.9 291.1 280.3 288.5 272.8C287.9 271.1 286 269.5 284.3 268.6C273.2 262.4 260.9 261.5 248.6 260.6C240.2 260 231.9 258.9 223.6 257.5C220.5 257 217.6 255.2 214.7 253.7C210.4 251.4 207.9 248.5 207 243C205.6 233.5 205.3 224.3 208.6 215.3C209.4 213.2 210.9 211.1 212.7 209.8C221 203.9 230.6 201.6 240.4 200.1C244.2 199.5 245.1 198 245.2 194.4C245.6 184.7 246.2 174.9 246.6 164.7ZM257.2 198.1C270.7 198.5 283.2 196.8 295 191C296.5 190.3 298.5 188.8 298.7 187.5C299.4 182.4 299.8 177.2 299.6 172.1C299.4 167.6 296.4 165 291.8 164C279.4 161.3 267.1 162.8 254.5 164.7C255.4 176 256.3 186.9 257.2 198.1Z" fill="#010102"/>
    <path d="M258.5 62.6C267.8 63.6 277.2 64.2 286.5 65.6C299.5 67.5 307 75.2 310.2 88C312.6 97.3 310.8 106 307.8 114.6C307.3 116 306 117.3 304.8 118.3C294.4 126.9 282.7 132 269.1 133C256 134 243.4 132.4 230.8 128.7C224.7 126.9 220.2 123.4 216.9 118.2C208.6 105 208.4 91.3 215.1 77.5C216.1 75.3 218.4 73.6 220.5 72.1C231.8 64.1 244.8 62.5 258.5 62.6ZM259.6 121.4C266.2 120.8 270.7 120.6 275.2 119.9C290.2 117.7 295.7 112 297.4 97.2C298.5 87.4 295 82.3 285.1 79.5C269.1 74.9 253 75.6 237 78.7C230.6 79.9 224.5 82.4 223.5 90.5C222.4 99.7 224.9 107.8 230.7 114.9C231.6 116 233.3 116.8 234.8 117.1C243.7 118.8 252.6 120.2 259.6 121.4Z" fill="#010102"/>
</svg>
